# xmcd
#
# Track frame offsets:
#	183
#	13768
#	25143
#	39100
#	52435
#	67170
#	77998
#	89535
#	100738
#	115765
#	131145
#	149080
#	161080
#	170488
#	186043
#
# Disc length: 2629 seconds
#
# Revision: 0
# Processed by: cddbd v1.4PL0 Copyright (c) Steve Scherf et al.
# Submitted via: dBpowerAMP V4.0
#
DISCID=d90a430f
DTITLE=Maria de Lourdes - A Jose Alfredo Jimenez
DYEAR=1900
DGENRE=Latin
TTITLE0=15 de Septiembre
TTITLE1=A la Luz de los Cocuyos
TTITLE2=Paloma Querida
TTITLE3=Sin nos Dejan
TTITLE4=Guitarras de Media Noche
TTITLE5=No me Amenaces
TTITLE6=La que se Fue
TTITLE7=Amaneci en tus Brazos
TTITLE8=Me equivoque con Tigo
TTITLE9=Una Cruz en el Cielo
TTITLE10=Que te Vaya Bonito
TTITLE11=Extrañame
TTITLE12=Declarate Inocente
TTITLE13=Vamonos
TTITLE14=Se va Diciembre
EXTD=Mexican Music
EXTT0=
EXTT1=
EXTT2=
EXTT3=
EXTT4=
EXTT5=
EXTT6=
EXTT7=
EXTT8=
EXTT9=
EXTT10=
EXTT11=
EXTT12=
EXTT13=
EXTT14=
PLAYORDER=
